<svg xmlns="http://www.w3.org/2000/svg" viewBox="0 0 64 64" role="img" aria-labelledby="title desc">
  <title id="title">USDC</title>
  <desc id="desc">Stylized USD Coin logo</desc>
  <circle cx="32" cy="32" r="30" fill="#2775CA"/>
  <path d="M25.6 20.7c0-2.2 1.8-4 4-4h4.8c2.2 0 4 1.8 4 4v1.7h4.1v-1.7c0-4.5-3.6-8.1-8.1-8.1h-.4V9.8h-4.1v2.8h-.4c-4.5 0-8.1 3.6-8.1 8.1 0 8.9 16.8 5.6 16.8 12.6 0 2.2-1.8 4-4 4h-4.8c-2.2 0-4-1.8-4-4v-1.7h-4.1v1.7c0 4.5 3.6 8.1 8.1 8.1h.4v2.8h4.1v-2.8h.4c4.5 0 8.1-3.6 8.1-8.1 0-8.9-16.8-5.6-16.8-12.6z" fill="#FFF"/>
  <path d="M14.1 23.4a21.8 21.8 0 0 0 0 17.2" fill="none" stroke="#FFF" stroke-linecap="round" stroke-width="3.2"/>
  <path d="M49.9 23.4a21.8 21.8 0 0 1 0 17.2" fill="none" stroke="#FFF" stroke-linecap="round" stroke-width="3.2"/>
</svg>
